HIERARCHY
ROOT Hips
{
	OFFSET -0.001795 -0.223333 0.028219
	CHANNELS 6 Xposition Yposition Zposition Zrotation Yrotation Xrotation 
	JOINT LeftUpLeg
	{
		OFFSET 0.069520 -0.091406 -0.006815
		CHANNELS 3 Zrotation Yrotation Xrotation
		JOINT LeftLeg
		{
			OFFSET 0.034277 -0.375199 -0.004496
			CHANNELS 3 Zrotation Yrotation Xrotation
			JOINT LeftFoot
			{
				OFFSET -0.013596 -0.397961 -0.043693
				CHANNELS 3 Zrotation Yrotation Xrotation
				JOINT LeftToe
				{
					OFFSET 0.026358 -0.055791 0.119288
					CHANNELS 3 Zrotation Yrotation Xrotation
					End Site
					{
						OFFSET 0.000000 0.000000 0.000000
					}
				}
			}
		}
	}
	JOINT RightUpLeg
	{
		OFFSET -0.067670 -0.090522 -0.004320
		CHANNELS 3 Zrotation Yrotation Xrotation
		JOINT RightLeg
		{
			OFFSET -0.038290 -0.382569 -0.008850
			CHANNELS 3 Zrotation Yrotation Xrotation
			JOINT RightFoot
			{
				OFFSET 0.015774 -0.398415 -0.042312
				CHANNELS 3 Zrotation Yrotation Xrotation
				JOINT RightToe
				{
					OFFSET -0.025372 -0.048144 0.123348
					CHANNELS 3 Zrotation Yrotation Xrotation
					End Site
					{
						OFFSET 0.000000 0.000000 0.000000
					}
				}
			}
		}
	}
	JOINT Spine
	{
		OFFSET -0.002533 0.108963 -0.026696
		CHANNELS 3 Zrotation Yrotation Xrotation
		JOINT Spine1
		{
			OFFSET 0.005487 0.135180 0.001092
			CHANNELS 3 Zrotation Yrotation Xrotation
			JOINT Spine2
			{
				OFFSET 0.001457 0.052922 0.025425
				CHANNELS 3 Zrotation Yrotation Xrotation
				JOINT Neck
				{
					OFFSET -0.002778 0.213870 -0.042857
					CHANNELS 3 Zrotation Yrotation Xrotation
					JOINT Head
					{
						OFFSET 0.005152 0.064970 0.051349
						CHANNELS 3 Zrotation Yrotation Xrotation
						End Site
						{
							OFFSET 0.000000 0.000000 0.000000
						}
					}
				}
				JOINT LeftShoulder
				{
					OFFSET 0.078845 0.121749 -0.034090
					CHANNELS 3 Zrotation Yrotation Xrotation
					JOINT LeftArm
					{
						OFFSET 0.090977 0.030469 -0.008868
						CHANNELS 3 Zrotation Yrotation Xrotation
						JOINT LeftForeArm
						{
							OFFSET 0.259612 -0.012772 -0.027456
							CHANNELS 3 Zrotation Yrotation Xrotation
							JOINT LeftHand
							{
								OFFSET 0.249234 0.008986 -0.001171
								CHANNELS 3 Zrotation Yrotation Xrotation
								End Site
								{
									OFFSET 0.000000 0.000000 0.000000
								}
							}
						}
					}
				}
				JOINT RightShoulder
				{
					OFFSET -0.081759 0.118833 -0.038615
					CHANNELS 3 Zrotation Yrotation Xrotation
					JOINT RightArm
					{
						OFFSET -0.096012 0.032551 -0.009143
						CHANNELS 3 Zrotation Yrotation Xrotation
						JOINT RightForeArm
						{
							OFFSET -0.253742 -0.013329 -0.021401
							CHANNELS 3 Zrotation Yrotation Xrotation
							JOINT RightHand
							{
								OFFSET -0.255298 0.007772 -0.005559
								CHANNELS 3 Zrotation Yrotation Xrotation
								End Site
								{
									OFFSET 0.000000 0.000000 0.000000
								}
							}
						}
					}
				}
			}
		}
	}
}
MOTION
Frames: 6
Frame Time: 0.050000
-0.008626 0.947749 -0.002958 -1.191654 -6.229164 5.511299 5.211305 -0.011436 0.928117 -3.388355 0.449469 -6.421455 3.829912 9.712738 8.787140 0.000000 0.000000 0.000000 -3.386683 0.286265 -1.825313 1.758537 -0.267947 -4.911325 1.848042 -0.924446 9.136490 0.000000 0.000000 0.000000 -0.168610 0.211138 -4.515749 3.550278 -0.378678 -23.122234 -1.181187 2.479683 27.164696 3.251239 0.190332 -33.484369 0.000000 0.000000 0.000000 -22.122246 -1.458614 0.027901 -52.822765 1.752477 -9.217255 -11.900384 -27.364378 4.399685 0.000000 0.000000 0.000000 5.477985 8.481706 3.016759 27.668455 30.317554 1.776128 -111.867845 29.110104 -36.044746 0.000000 0.000000 0.000000
-0.008862 0.947475 -0.002664 -1.116070 -5.466313 5.442896 5.218578 -0.025812 0.815839 -3.391790 0.441958 -6.312101 3.425568 9.088295 8.932339 0.000000 0.000000 0.000000 -3.303752 0.258194 -1.526668 1.499236 -0.266969 -5.229643 1.536394 -1.595155 9.389673 0.000000 0.000000 0.000000 -0.388137 0.224070 -4.933114 3.544364 -0.392484 -22.721737 -1.496089 2.018843 27.143311 2.967389 0.422908 -34.544903 0.000000 0.000000 0.000000 -22.079888 -1.375217 -0.036058 -52.895149 1.306529 -9.040499 -11.827761 -27.539776 4.415528 0.000000 0.000000 0.000000 5.402949 9.215420 3.308232 27.997938 31.319767 2.040718 -108.734676 27.645443 -32.174677 0.000000 0.000000 0.000000
-0.009126 0.947350 -0.002412 -1.079081 -4.816911 5.288853 5.354902 -0.026517 0.977506 -3.586561 0.449545 -6.382957 3.163946 8.712668 9.078126 0.000000 0.000000 0.000000 -3.246419 0.229209 -1.205756 1.498741 -0.268831 -5.151872 1.265899 -2.025806 9.301839 0.000000 0.000000 0.000000 -0.687582 0.216938 -4.959441 3.489780 -0.368553 -22.766555 -1.216101 2.099656 27.177972 2.701873 0.621732 -34.527820 0.000000 0.000000 0.000000 -22.535333 -2.089391 0.208303 -52.442388 1.211623 -8.912799 -12.439476 -28.118171 4.634903 0.000000 0.000000 0.000000 5.852601 9.522022 3.487915 28.361956 32.446207 2.342025 -103.173146 26.383506 -27.381700 0.000000 0.000000 0.000000
-0.009451 0.947117 -0.002266 -1.176529 -3.396192 5.247785 5.876969 -0.069112 0.661480 -3.766222 0.444644 -5.804210 2.432290 7.434546 8.533328 0.000000 0.000000 0.000000 -2.838730 0.171123 -0.711806 1.304739 -0.274783 -5.493730 1.003330 -2.638438 9.869906 0.000000 0.000000 0.000000 -1.042130 0.210145 -5.130089 3.402330 -0.321620 -22.800879 -1.122799 2.008026 27.360635 2.544291 0.882271 -35.428334 0.000000 0.000000 0.000000 -22.812388 -2.500558 0.175889 -51.444920 0.505911 -8.440673 -12.632949 -28.197903 4.637613 0.000000 0.000000 0.000000 6.921641 9.998520 3.813311 28.113607 32.672788 2.339092 -96.970921 23.469721 -21.034928 0.000000 0.000000 0.000000
-0.009742 0.946708 -0.002253 -1.136684 -2.142897 5.184392 6.067736 -0.104989 0.294789 -3.896601 0.439574 -5.226297 1.878949 6.481794 8.215570 0.000000 0.000000 0.000000 -2.760649 0.133309 -0.328350 1.417028 -0.286656 -5.497611 0.523667 -3.287072 9.472350 0.000000 0.000000 0.000000 -1.430609 0.203870 -5.379619 3.277120 -0.284936 -22.587371 -0.832265 2.175636 27.128148 2.267023 1.172547 -35.567406 0.000000 0.000000 0.000000 -22.357299 -2.877612 0.083999 -51.269302 0.308816 -8.235555 -13.335126 -28.415134 4.783564 0.000000 0.000000 0.000000 7.381064 10.010768 3.952640 28.464540 33.243922 2.555894 -91.768668 21.202502 -16.451608 0.000000 0.000000 0.000000
-0.009915 0.946382 -0.002366 -1.105123 -0.951779 5.150896 6.376843 -0.144886 -0.157224 -4.009042 0.435668 -4.676553 1.150922 5.124501 7.658182 0.000000 0.000000 0.000000 -2.479645 0.107089 -0.193656 1.266400 -0.284241 -5.499381 -0.077960 -4.431457 9.656941 0.000000 0.000000 0.000000 -1.838854 0.179536 -5.083110 2.932605 -0.145769 -23.184473 -0.239595 2.464848 27.073306 1.761236 1.576623 -35.836095 0.000000 0.000000 0.000000 -22.030915 -3.107601 -0.100377 -50.841538 -0.038378 -7.960301 -14.074827 -27.942488 4.811115 0.000000 0.000000 0.000000 7.929676 10.094811 4.153199 27.767287 33.710953 2.526506 -87.749558 19.152545 -13.005187 0.000000 0.000000 0.000000
